<?xml version="1.0" encoding="UTF-8"?><svg xmlns="http://www.w3.org/2000/svg" xmlns:xlink="http://www.w3.org/1999/xlink" height="501.6" preserveAspectRatio="xMidYMid meet" version="1.1" viewBox="0.0 -1.8 399.4 501.6" width="399.4" zoomAndPan="magnify">
 <defs>
  <clipPath id="clip1">
   <path d="m0 0h399.42v499.74h-399.42z"/>
  </clipPath>
  <clipPath id="clip2">
   <path d="m0 0h399.42v499.74h-399.42z"/>
  </clipPath>
 </defs>
 <g id="surface1">
  <g clip-path="url(#clip1)" id="change1_1">
   <path d="m399.4 349.04c0.01-0.03 0-0.05 0-0.08s-0.01-0.07-0.02-0.1c-1.42-10.27-4.49-20-9.11-28.91-2.71-5.22-5.95-10.25-9.08-15.11-5.99-9.3-11.65-18.07-14.05-28.25-3.13-13.24-0.29-26.56 2.72-40.66l0.22-1.07c2.2-10.26 3.89-18.83 4.04-27.85 0.37-22.09-9.46-43.82-26.3-58.12-3.21-2.72-6.67-5.19-10.01-7.57-5.94-4.23-11.54-8.23-15.91-13.56-6.54-7.96-9.71-18.36-12.78-28.412-0.77-2.559-1.58-5.2-2.43-7.77-14.35-43.387-47.43-77.109-86.34-88.008-38.22-10.691-81.79 3.2894-104.02 33.278-21.201 3.941-38.002 10.683-51.322 20.613-19.449 14.469-30.68 36.41-29.328 57.269 0.519 7.97 2.777 15.75 4.968 23.27 3.02 10.4 5.879 20.21 4.391 30.25-1.621 10.88-8.32 20.49-14.801 29.78-1.281 1.83-2.55 3.66-3.781 5.48-10.398 15.41-13.988 28.42-10.988 39.7 0.078 0.35 0.179 0.69 0.277 1.02 1.152 3.8 3.043 7.25 4.871 10.57 1.852 3.37 3.59 6.56 4.571 10 3.511 12.3-3.36 24.79-10.008 36.87-1.563 2.84-3.184 5.78-4.621 8.65-12.582 24.98-14 56.45-3.8207 84.18 0.0312 0.1 0.0703 0.19 0.1211 0.28 1.7695 3.46 3.6606 6.86 5.6796 10.18 0.559 0.94 1.141 1.88 1.731 2.81 35.558 56.31 105.02 91.97 181.41 91.97 10.71 0 21.33-0.7 31.78-2.09 2.89-0.38 5.76-0.81 8.62-1.3 35.06-5.93 67.9-19.54 95.12-39.73 37.22-27.62 61.44-65.57 68.18-106.86 0-0.02 0.01-0.03 0.01-0.05v-0.05c0.02-0.11 0.03-0.23 0.03-0.35 0-0.09 0-0.18-0.02-0.27" fill="#0f0e0c"/>
  </g>
  <g id="change2_1"><path d="m281.58 243.29c0.86 7.64 0.19 15.69-1.35 23.18-4.61 22.46-14.73 44.24-8.84 67.52 2.51 9.93 8.02 20.94 11.32 32-11.29-1.61-22.49-3.27-28.85-13.56-3.03-4.91-3.88-10.85-4.61-16.46-0.82-6.4-1.53-12.82-2.31-19.23-0.98-8.05-1.93-16.11-2.91-24.16 2.67-2.36 5.23-4.81 7.68-7.3 12.15-12.35 22.26-26.53 29.87-41.99" fill="#fff"/></g>
  <g clip-path="url(#clip2)" id="change1_2">
   <path d="m348.86 434.85c-0.26-24.73 9.82-48.07 9.81-72.74-0.01-10.39-1.83-20.86-6.93-30.03-4.76-8.56-12.02-15.3-18.14-22.84-7.05-8.68-11.38-18.04-10.28-29.47 1.13-11.6 5.91-22.42 7.98-33.84 3.22-17.75-3.74-32.3-14.33-46.1-11.76-15.32-27.85-30.24-29.43-50.64-0.09-1.21-2.34-0.99-2.29 0.23 1.37 35.89 46.67 54.31 42.2 91.63-2.41 20.13-15.51 39.6-5.73 59.76 4.24 8.73 11.43 15.58 17.55 22.96 7.1 8.56 11.81 17.87 13.26 29.01 3.65 28.08-10.58 54.69-9.45 82.67 0.07 1.59 1.45 2.29 2.85 2.26-5.51 5.24-11.41 10.22-17.71 14.89-27.96 20.74-62.01 34.37-98.29 39.66-9.96-7.15-18.13-16.11-20.13-29.01-0.14-0.88-0.23-1.74-0.28-2.58-0.14-2-0.06-3.89 0.22-5.69 2.45-16.21 20.31-24.84 35.09-29.94 14.98-5.18 32.48-10.58 41.28-24.92 5.35-8.72 5.89-18 4.28-27.28-0.34-1.96-0.78-3.92-1.3-5.88-2.16-8.31-5.61-16.52-8.42-24.21-4.17-11.41-6.01-22.61-4.35-34.74 1.67-12.13 5.76-23.72 8.66-35.57 3.08-12.6 4.84-26.77 1.19-39.35-0.74-2.58-1.71-5.09-2.94-7.5-1.33-2.61-2.96-5.1-4.94-7.45-5.9-6.99-13.78-9.04-21.19-13.78-10.1-6.45-8.63-18.57-5.31-28.46 3.1-9.26 6.57-18.03 5.94-27.98-0.51-7.91-2.86-15.59-6.83-22.45-10.71-18.53-30.53-24.6-50.79-25.521-15.73-0.711-33.87 1.391-49.56-3.008-0.84-5.16-2.52-10.171-5.19-14.652-2.86-4.789-6.79-8.43-10.9-12.117-5.49-4.942-11.46-11.805-7.15-19.574 0.35-0.629-0.7-0.899-1.03-0.426-6.05 8.469 0.52 17.906 6.4 24.328 5.6 6.109 9.61 12.672 11.54 20.219 0.29 1.129 0.53 2.269 0.72 3.441 0.33 1.99 0.52 4.05 0.56 6.18 0.48 23.76-15.2 43-30.6 59.39-5.25 5.58-10.53 11.1-15.541 16.8-1.511 1.73-2.992 3.47-4.441 5.24-7.18 8.71-13.52 18-17.922 28.68-0.449 1.05-0.859 2.11-1.258 3.19-0.601 1.62-1.148 3.25-1.672 4.9-6.039 19.31-6.476 40.32-1.488 59.92 5.871 23.08 18.969 45.83 37.402 61.12 1.95 1.62 6-0.7 3.88-2.96-15.09-16.1-27.751-33.58-34.18-54.96-5.442-18.09-6.172-37.56-1.75-55.91 3.769 5.81 8.777 10.64 14.758 13.16 5.71 2.4 12.472 2.37 17.992-0.01 6.52 15.22 15.19 29.5 26.56 41.62 2.99 3.19 6.21 6.26 9.62 9.13 0.68 11.25 1.68 22.5 2.55 33.72 1.19 15.35 4.99 32.76-9.04 43.4-5.79 4.39-12.71 7.22-19.3 10.16-7.47 3.34-15 6.55-22.582 9.63-9.121 3.7-18.351 7.08-27.601 10.39-1.739-2.03-3.867-3.77-6.508-5.09-15.84-7.93-31.551 1.02-47.102 7.29-2.097-3.43-4.07-6.95-5.91-10.53-9.6404-26.42-8.2889-56.34 3.653-80.05 1.41-2.8 3-5.69 4.539-8.49 7.14-12.97 14.507-26.38 10.437-40.65-1.129-3.98-3.098-7.57-5-11.03-1.777-3.25-3.457-6.31-4.469-9.63-0.07-0.24-0.14-0.49-0.211-0.79-2.628-9.86 0.743-21.53 10.282-35.67 1.218-1.81 2.48-3.61 3.742-5.41 6.808-9.77 13.848-19.87 15.637-31.92 1.652-11.11-1.489-21.92-4.528-32.38-2.121-7.26-4.301-14.77-4.781-22.19-1.25-19.191 9.219-39.469 27.32-52.941 12.899-9.61 29.328-16.11 50.212-19.879 0.03 0 0.05-0.012 0.08-0.02 0.28-0.05 0.55-0.16 0.79-0.308 0.1-0.071 0.2-0.145 0.3-0.223 0.07-0.07 0.15-0.141 0.21-0.211 0.07-0.058 0.14-0.148 0.2-0.238 0.05-0.07 0.1-0.141 0.15-0.211 20.92-28.77 62.54-42.207 99.07-31.988 37.33 10.449 69.11 42.929 82.94 84.757 0.83 2.524 1.63 5.133 2.4 7.662 3.21 10.52 6.53 21.4 13.69 30.13 4.8 5.84 10.94 10.22 16.87 14.45 3.26 2.32 6.64 4.73 9.68 7.31 15.71 13.34 24.88 33.61 24.54 54.23-0.14 8.57-1.79 16.89-3.93 26.89l-0.22 1.06c-2.99 14.03-6.09 28.53-2.7 42.86 2.6 11.01 8.76 20.57 14.71 29.81 3.07 4.76 6.25 9.69 8.85 14.7 4.31 8.32 7.2 17.42 8.57 27.03-5.25 31.66-21.15 61.31-45.54 85.57zm-193.41-102.92c-1.19-11.42-2.22-22.88-3.55-34.3 12.56 9.33 27.33 15.82 42.99 16.31 17.11 0.55 32.36-7.48 45.31-18.09 0.42 7.7 0.97 15.38 1.62 23.07 0.97 11.59 0.6 25.86 6.76 36.17 5.05 8.46 14.73 12.28 23.91 14.3 3.92 0.87 7.82 1.53 11.68 2.24 2.06 9.44 1.85 18.78-3.88 27.39-10.24 15.38-31.09 18.37-46.94 25.02-15.05 6.31-29.02 17.47-30.1 33.69-8.4 4.04-16.68 9.41-24.35 11.32-22.67 5.64-23.74-21.99-39.99-29.68-7.26-3.44-15.44-1.79-22.74 0.59-7.62 2.48-17.24 7.72-25.354 4.62-10.41-3.97-11.226-17.31-12.929-26.64-0.809-4.41-2-8.78-4.028-12.59 9.829-3.54 19.547-7.4 29.171-11.33 8.16-3.33 16.26-6.82 24.29-10.46 6.57-2.97 13.29-6.09 18.81-10.84 12.49-10.77 10.87-25.87 9.32-40.79zm115.94 2.06c2.51 9.93 8.02 20.94 11.32 32-11.29-1.61-22.49-3.27-28.85-13.56-3.03-4.91-3.88-10.85-4.61-16.46-0.82-6.4-1.53-12.82-2.31-19.23-0.98-8.05-1.93-16.11-2.91-24.16 2.67-2.36 5.23-4.81 7.68-7.3 12.15-12.35 22.26-26.53 29.87-41.99 0.86 7.64 0.19 15.69-1.35 23.18-4.61 22.46-14.73 44.24-8.84 67.52zm-162.67-95.85c-5.77 2.58-13.142 1.28-18.661-2.96-4.02-3.08-7.051-7.16-9.391-11.61-0.219-0.42-0.43-0.85-0.629-1.28 0.301-0.94 0.617-1.88 0.949-2.81 3.578-10.01 8.899-18.77 15.102-26.89 2.316 12.62 5.44 25.09 9.49 37 0.98 2.87 2.02 5.72 3.14 8.55zm-8.09-51.24c6.18-7.43 12.98-14.44 19.67-21.59 14.06-15.02 28.07-32.35 30.55-53.5 0.44-3.72 0.51-7.55 0.16-11.34 8.3 2.65 17.27 3.61 26.1 3.89 19.99 0.64 42.91-1.51 59.01 12.79 6.53 5.8 10.83 12.86 13.06 20.48-5.19-3.44-12.55-2.61-17.92 0.14-4.55 2.34-10.37 7.89-9.03 13.56 0.45 1.93 3.02 1.86 4.21 0.7 2.84-2.76 4.82-6.31 8.64-7.94 3.89-1.65 7.93-0.72 11.93-0.2 1.08 0.14 2.41-0.24 3.39-0.93 1.41 8.41 0.5 17.29-2.47 25.83-1.19 3.41-2.46 6.9-3.43 10.46v-6.61c0-3.31-2.71-6.02-6.02-6.02h-0.15c-3.31 0-6.02 2.71-6.02 6.02v21.27c0 3.31 2.71 6.02 6.02 6.02h0.15c2.31 0 4.33-1.32 5.33-3.25 0.03 0.12 0.07 0.23 0.1 0.35 2.63 8.78 10.19 12.32 17.86 15.98 9.61 4.58 15.17 12.25 17.93 21.15-6.6 14.88-15.29 28.77-26 41.1-3.21 3.7-6.7 7.46-10.43 11.05-1.11 1.08-2.24 2.13-3.4 3.16-11.26 10.12-24.59 18.34-39.49 19.35-18.22 1.23-35.67-7.55-49.48-19.31-1.54-1.3-3.03-2.65-4.47-4.02-1.24-1.18-2.45-2.38-3.61-3.59-11.64-12.11-20.52-26.73-27.11-42.19-0.74-1.72-1.45-3.45-2.12-5.19-0.71-1.82-1.39-3.64-2.04-5.47-4.9-13.83-8.06-27.95-10.92-42.15zm298.77 162.14c0.01-0.03 0-0.05 0-0.08s-0.01-0.07-0.02-0.1c-1.42-10.27-4.49-20-9.11-28.91-2.71-5.22-5.95-10.25-9.08-15.11-5.99-9.3-11.65-18.07-14.05-28.25-3.13-13.24-0.29-26.56 2.72-40.66l0.22-1.07c2.2-10.26 3.89-18.83 4.04-27.85 0.37-22.09-9.46-43.82-26.3-58.12-3.21-2.72-6.67-5.19-10.01-7.57-5.94-4.23-11.54-8.23-15.91-13.56-6.54-7.96-9.71-18.36-12.78-28.412-0.77-2.559-1.58-5.2-2.43-7.77-14.35-43.387-47.43-77.109-86.34-88.008-38.22-10.691-81.79 3.2894-104.02 33.278-21.201 3.941-38.002 10.683-51.322 20.613-19.449 14.469-30.68 36.41-29.328 57.269 0.519 7.97 2.777 15.75 4.968 23.27 3.02 10.4 5.879 20.21 4.391 30.25-1.621 10.88-8.32 20.49-14.801 29.78-1.281 1.83-2.55 3.66-3.781 5.48-10.398 15.41-13.988 28.42-10.988 39.7 0.078 0.35 0.179 0.69 0.277 1.02 1.152 3.8 3.043 7.25 4.871 10.57 1.852 3.37 3.59 6.56 4.571 10 3.511 12.3-3.36 24.79-10.008 36.87-1.563 2.84-3.184 5.78-4.621 8.65-12.582 24.98-14 56.45-3.8207 84.18 0.0312 0.1 0.0703 0.19 0.1211 0.28 1.7695 3.46 3.6606 6.86 5.6796 10.18 0.559 0.94 1.141 1.88 1.731 2.81 35.558 56.31 105.02 91.97 181.41 91.97 10.71 0 21.33-0.7 31.78-2.09 2.89-0.38 5.76-0.81 8.62-1.3 35.06-5.93 67.9-19.54 95.12-39.73 37.22-27.62 61.44-65.57 68.18-106.86 0-0.02 0.01-0.03 0.01-0.05v-0.05c0.02-0.11 0.03-0.23 0.03-0.35 0-0.09 0-0.18-0.02-0.27" fill="#0f0e0c"/>
  </g>
  <g id="change1_3"><path d="m186.78 261.11c5.29 1.58 10.94 2.06 16.43 1.54 10.2-0.97 21.37-5.29 27.51-13.87 1.52-2.13-1.6-3.6-3.27-2.3-7.37 5.78-15.07 10.21-24.54 11.29-4.32 0.49-8.72 0.3-12.98-0.55-4.76-0.93-9.16-3.59-13.96-3.99-0.29-0.03-0.75 0.15-0.6 0.52 1.61 4.27 7.4 6.15 11.41 7.36" fill="#0f0e0c"/></g>
  <g id="change1_4"><path d="m202.18 213.67c2.18-0.19 3.93-1.55 6.01-1.88 4.75-0.76 4.95 5.12 4.58 8.52-0.67 6.24-4.74 11.57-10.35 14.19-2.88 1.35-0.57 4.61 2.04 3.43 9.1-4.13 16.87-16.25 12.25-26.32-2.02-4.39-6.12-5.17-10.38-3.58-4.34 1.62-7.94 1.83-11.31-1.73-3.1-3.27-4.24-8.3-5.76-12.38-0.4-1.09-2.48-0.64-2.41 0.52 0.48 8.5 4.74 20.14 15.33 19.23" fill="#0f0e0c"/></g>
  <g id="change1_5"><path d="m212.16 271.53c-5.54 4.62-11.64 4.16-17.52 0.41-0.59-0.38-1.75-0.02-1.47 0.83 3 9.15 17.9 7.82 22.01 0.44 0.97-1.73-1.9-2.62-3.02-1.68" fill="#0f0e0c"/></g>
  <g id="change1_6"><path d="m136.7 157.15c3.29-5.85 9.79-9.78 16.57-7.94 5.41 1.47 8.4 6.11 12.45 9.53 1.8 1.52 6.21 0.61 6.23-2.2 0.04-9.31-10.15-14.76-18.46-15.05-9.47-0.33-18.46 5.44-21.8 14.33-1.17 3.11 3.7 3.66 5.01 1.33" fill="#0f0e0c"/></g>
  <g id="change1_7"><path d="m154.53 166.62h-0.15c-3.31 0-6.02 2.71-6.02 6.02v21.27c0 3.31 2.71 6.02 6.02 6.02h0.15c3.31 0 6.02-2.71 6.02-6.02v-21.27c0-3.31-2.71-6.02-6.02-6.02" fill="#0f0e0c"/></g>
  <g id="change2_2"><path d="m80.988 219.48c-0.332 0.93-0.648 1.87-0.949 2.81 0.199 0.43 0.41 0.86 0.629 1.28 2.34 4.45 5.371 8.53 9.391 11.61 5.519 4.24 12.891 5.54 18.661 2.96-1.12-2.83-2.16-5.68-3.14-8.55-4.05-11.91-7.174-24.38-9.49-37-6.203 8.12-11.524 16.88-15.102 26.89zm55.712-62.33c3.29-5.85 9.79-9.78 16.57-7.94 5.41 1.47 8.4 6.11 12.45 9.53 1.8 1.52 6.21 0.61 6.23-2.2 0.04-9.31-10.15-14.76-18.46-15.05-9.47-0.33-18.46 5.44-21.8 14.33-1.17 3.11 3.7 3.66 5.01 1.33zm38.67 96.6c1.61 4.27 7.4 6.15 11.41 7.36 5.29 1.58 10.94 2.06 16.43 1.54 10.2-0.97 21.37-5.29 27.51-13.87 1.52-2.13-1.6-3.6-3.27-2.3-7.37 5.78-15.07 10.21-24.54 11.29-4.32 0.49-8.72 0.3-12.98-0.55-4.76-0.93-9.16-3.59-13.96-3.99-0.29-0.03-0.75 0.15-0.6 0.52zm11.48-59.31c0.48 8.5 4.74 20.14 15.33 19.23 2.18-0.19 3.93-1.55 6.01-1.88 4.75-0.76 4.95 5.12 4.58 8.52-0.67 6.24-4.74 11.57-10.35 14.19-2.88 1.35-0.57 4.61 2.04 3.43 9.1-4.13 16.87-16.25 12.25-26.32-2.02-4.39-6.12-5.17-10.38-3.58-4.34 1.62-7.94 1.83-11.31-1.73-3.1-3.27-4.24-8.3-5.76-12.38-0.4-1.09-2.48-0.64-2.41 0.52zm25.31 77.09c-5.54 4.62-11.64 4.16-17.52 0.41-0.59-0.38-1.75-0.02-1.47 0.83 3 9.15 17.9 7.82 22.01 0.44 0.97-1.73-1.9-2.62-3.02-1.68zm-51.61-98.89c0-3.31-2.71-6.02-6.02-6.02h-0.15c-3.31 0-6.02 2.71-6.02 6.02v21.27c0 3.31 2.71 6.02 6.02 6.02h0.15c3.31 0 6.02-2.71 6.02-6.02zm-49 56.41c-4.9-13.83-8.06-27.95-10.92-42.15 6.18-7.43 12.98-14.44 19.67-21.59 14.06-15.02 28.07-32.35 30.55-53.5 0.44-3.72 0.51-7.55 0.16-11.34 8.3 2.65 17.27 3.61 26.1 3.89 19.99 0.64 42.91-1.51 59.01 12.79 6.53 5.8 10.83 12.86 13.06 20.48-5.19-3.44-12.55-2.61-17.92 0.14-4.55 2.34-10.37 7.89-9.03 13.56 0.45 1.93 3.02 1.86 4.21 0.7 2.84-2.76 4.82-6.31 8.64-7.94 3.89-1.65 7.93-0.72 11.93-0.2 1.08 0.14 2.41-0.24 3.39-0.93 1.41 8.41 0.5 17.29-2.47 25.83-1.19 3.41-2.46 6.9-3.43 10.46v-6.61c0-3.31-2.71-6.02-6.02-6.02h-0.15c-3.31 0-6.02 2.71-6.02 6.02v21.27c0 3.31 2.71 6.02 6.02 6.02h0.15c2.31 0 4.33-1.32 5.33-3.25 0.03 0.12 0.07 0.23 0.1 0.35 2.63 8.78 10.19 12.32 17.86 15.98 9.61 4.58 15.17 12.25 17.93 21.15-6.6 14.88-15.29 28.77-26 41.1-3.21 3.7-6.7 7.46-10.43 11.05-1.11 1.08-2.24 2.13-3.4 3.16-11.26 10.12-24.59 18.34-39.49 19.35-18.22 1.23-35.67-7.55-49.48-19.31-1.54-1.3-3.03-2.65-4.47-4.02-1.24-1.18-2.45-2.38-3.61-3.59-11.64-12.11-20.52-26.73-27.11-42.19-0.74-1.72-1.45-3.45-2.12-5.19-0.71-1.82-1.39-3.64-2.04-5.47zm121.8 194.99c15.85-6.65 36.7-9.64 46.94-25.02 5.73-8.61 5.94-17.95 3.88-27.39-3.86-0.71-7.76-1.37-11.68-2.24-9.18-2.02-18.86-5.84-23.91-14.3-6.16-10.31-5.79-24.58-6.76-36.17-0.65-7.69-1.2-15.37-1.62-23.07-12.95 10.61-28.2 18.64-45.31 18.09-15.66-0.49-30.43-6.98-42.99-16.31 1.33 11.42 2.36 22.88 3.55 34.3 1.55 14.92 3.17 30.02-9.32 40.79-5.52 4.75-12.24 7.87-18.81 10.84-8.03 3.64-16.13 7.13-24.29 10.46-9.624 3.93-19.342 7.79-29.171 11.33 2.028 3.81 3.219 8.18 4.028 12.59 1.703 9.33 2.519 22.67 12.929 26.64 8.114 3.1 17.734-2.14 25.354-4.62 7.3-2.38 15.48-4.03 22.74-0.59 16.25 7.69 17.32 35.32 39.99 29.68 7.67-1.91 15.95-7.28 24.35-11.32 1.08-16.22 15.05-27.38 30.1-33.69zm97.95-178.11c3.22-17.75-3.74-32.3-14.33-46.1-11.76-15.32-27.85-30.24-29.43-50.64-0.09-1.21-2.34-0.99-2.29 0.23 1.37 35.89 46.67 54.31 42.2 91.63-2.41 20.13-15.51 39.6-5.73 59.76 4.24 8.73 11.43 15.58 17.55 22.96 7.1 8.56 11.81 17.87 13.26 29.01 3.65 28.08-10.58 54.69-9.45 82.67 0.07 1.59 1.45 2.29 2.85 2.26-5.51 5.24-11.41 10.22-17.71 14.89-27.96 20.74-62.01 34.37-98.29 39.66-9.96-7.15-18.13-16.11-20.13-29.01-0.14-0.88-0.23-1.74-0.28-2.58-0.14-2-0.06-3.89 0.22-5.69 2.45-16.21 20.31-24.84 35.09-29.94 14.98-5.18 32.48-10.58 41.28-24.92 5.35-8.72 5.89-18 4.28-27.28-0.34-1.96-0.78-3.92-1.3-5.88-2.16-8.31-5.61-16.52-8.42-24.21-4.17-11.41-6.01-22.61-4.35-34.74 1.67-12.13 5.76-23.72 8.66-35.57 3.08-12.6 4.84-26.77 1.19-39.35-0.74-2.58-1.71-5.09-2.94-7.5-1.33-2.61-2.96-5.1-4.94-7.45-5.9-6.99-13.78-9.04-21.19-13.78-10.1-6.45-8.63-18.57-5.31-28.46 3.1-9.26 6.57-18.03 5.94-27.98-0.51-7.91-2.86-15.59-6.83-22.45-10.71-18.53-30.53-24.6-50.79-25.521-15.73-0.711-33.87 1.391-49.56-3.008-0.84-5.16-2.52-10.171-5.19-14.652-2.86-4.789-6.79-8.43-10.9-12.117-5.49-4.942-11.46-11.805-7.15-19.574 0.35-0.629-0.7-0.899-1.03-0.426-6.05 8.469 0.52 17.906 6.4 24.328 5.6 6.109 9.61 12.672 11.54 20.219 0.29 1.129 0.53 2.269 0.72 3.441 0.33 1.99 0.52 4.05 0.56 6.18 0.48 23.76-15.2 43-30.6 59.39-5.25 5.58-10.53 11.1-15.541 16.8-1.511 1.73-2.992 3.47-4.441 5.24-7.18 8.71-13.52 18-17.922 28.68-0.449 1.05-0.859 2.11-1.258 3.19-0.601 1.62-1.148 3.25-1.672 4.9-6.039 19.31-6.476 40.32-1.488 59.92 5.871 23.08 18.969 45.83 37.402 61.12 1.95 1.62 6-0.7 3.88-2.96-15.09-16.1-27.751-33.58-34.18-54.96-5.442-18.09-6.172-37.56-1.75-55.91 3.769 5.81 8.777 10.64 14.758 13.16 5.71 2.4 12.472 2.37 17.992-0.01 6.52 15.22 15.19 29.5 26.56 41.62 2.99 3.19 6.21 6.26 9.62 9.13 0.68 11.25 1.68 22.5 2.55 33.72 1.19 15.35 4.99 32.76-9.04 43.4-5.79 4.39-12.71 7.22-19.3 10.16-7.47 3.34-15 6.55-22.582 9.63-9.121 3.7-18.351 7.08-27.601 10.39-1.739-2.03-3.867-3.77-6.508-5.09-15.84-7.93-31.551 1.02-47.102 7.29-2.097-3.43-4.07-6.95-5.91-10.53-9.6404-26.42-8.2889-56.34 3.653-80.05 1.41-2.8 3-5.69 4.539-8.49 7.14-12.97 14.507-26.38 10.437-40.65-1.129-3.98-3.098-7.57-5-11.03-1.777-3.25-3.457-6.31-4.469-9.63-0.07-0.24-0.14-0.49-0.211-0.79-2.628-9.86 0.743-21.53 10.282-35.67 1.218-1.81 2.48-3.61 3.742-5.41 6.808-9.77 13.848-19.87 15.637-31.92 1.652-11.11-1.489-21.92-4.528-32.38-2.121-7.26-4.301-14.77-4.781-22.19-1.25-19.191 9.219-39.469 27.32-52.941 12.899-9.61 29.328-16.11 50.212-19.879 0.03 0 0.05-0.012 0.08-0.02 0.28-0.05 0.55-0.16 0.79-0.308 0.1-0.071 0.2-0.145 0.3-0.223 0.07-0.07 0.15-0.141 0.21-0.211 0.07-0.058 0.14-0.148 0.2-0.238 0.05-0.07 0.1-0.141 0.15-0.211 20.92-28.77 62.54-42.207 99.07-31.988 37.33 10.449 69.11 42.929 82.94 84.757 0.83 2.524 1.63 5.133 2.4 7.662 3.21 10.52 6.53 21.4 13.69 30.13 4.8 5.84 10.94 10.22 16.87 14.45 3.26 2.32 6.64 4.73 9.68 7.31 15.71 13.34 24.88 33.61 24.54 54.23-0.14 8.57-1.79 16.89-3.93 26.89l-0.22 1.06c-2.99 14.03-6.09 28.53-2.7 42.86 2.6 11.01 8.76 20.57 14.71 29.81 3.07 4.76 6.25 9.69 8.85 14.7 4.31 8.32 7.2 17.42 8.57 27.03-5.25 31.66-21.15 61.31-45.54 85.57-0.26-24.73 9.82-48.07 9.81-72.74-0.01-10.39-1.83-20.86-6.93-30.03-4.76-8.56-12.02-15.3-18.14-22.84-7.05-8.68-11.38-18.04-10.28-29.47 1.13-11.6 5.91-22.42 7.98-33.84" fill="#fff"/></g>
 </g>
</svg>